<svg version="1.1" xmlns="http://www.w3.org/2000/svg" xmlns:xlink="http://www.w3.org/1999/xlink"
    width="27" height="36">
    <defs>
        <clipPath id="TRvQCFGpKKLF">
            <path fill="none" stroke="none" d=" M 0 0 L 27 0 L 27 36 L 0 36 L 0 0 Z" />
        </clipPath>
    </defs>
    <g transform="scale(1,1)" clip-path="url(#TRvQCFGpKKLF)">
        <g transform="translate(-59,-239)">
            <g transform="scale(21,21)">
                <g transform="translate(3.279857142857143,12.382285714285711)">
                    <path fill="#009688" stroke="none" paint-order="stroke fill markers"
                        d=" M 0.192 -0.616 Q 0.192 -0.585 0.164 -0.5700000000000001 Q 0.152 -0.5630000000000001 0.138 -0.5630000000000001 Q 0.105 -0.5630000000000001 0.09 -0.594 Q 0.085 -0.605 0.085 -0.616 Q 0.085 -0.647 0.113 -0.662 Q 0.125 -0.669 0.139 -0.669 Q 0.17200000000000001 -0.669 0.187 -0.638 Q 0.192 -0.627 0.192 -0.616 Z" />
                </g>
                <g transform="translate(3.142857142857143,12.645285714285713)">
                    <path fill="#009688" stroke="none" paint-order="stroke fill markers"
                        d=" M 0.28700000000000003 -0.683 L 0.183 -0.261 Q 0.226 -0.278 0.294 -0.354 Q 0.373 -0.442 0.44 -0.442 Q 0.488 -0.442 0.504 -0.402 Q 0.508 -0.391 0.508 -0.379 Q 0.508 -0.338 0.47400000000000003 -0.322 Q 0.463 -0.318 0.453 -0.318 Q 0.422 -0.318 0.41600000000000004 -0.34500000000000003 Q 0.41500000000000004 -0.34900000000000003 0.41500000000000004 -0.353 Q 0.41500000000000004 -0.381 0.44 -0.397 L 0.441 -0.398 L 0.441 -0.398 Q 0.454 -0.406 0.47200000000000003 -0.40700000000000003 L 0.468 -0.41100000000000003 Q 0.46 -0.417 0.447 -0.419 Q 0.445 -0.42 0.438 -0.42 Q 0.385 -0.42 0.309 -0.339 Q 0.305 -0.335 0.301 -0.33 L 0.295 -0.324 Q 0.243 -0.27 0.209 -0.25 Q 0.357 -0.231 0.357 -0.145 Q 0.357 -0.131 0.353 -0.114 Q 0.34500000000000003 -0.082 0.34500000000000003 -0.058 Q 0.34500000000000003 -0.011 0.377 -0.011 Q 0.423 -0.011 0.451 -0.094 Q 0.458 -0.111 0.464 -0.135 Q 0.47200000000000003 -0.152 0.47800000000000004 -0.153 Q 0.49 -0.153 0.49 -0.14300000000000002 Q 0.49 -0.127 0.47100000000000003 -0.078 Q 0.463 -0.058 0.454 -0.042 Q 0.422 0.011 0.375 0.011 Q 0.32 0.011 0.295 -0.037 Q 0.28300000000000003 -0.06 0.28300000000000003 -0.088 Q 0.28300000000000003 -0.099 0.28700000000000003 -0.123 Q 0.29 -0.133 0.29 -0.14400000000000002 Q 0.29 -0.20700000000000002 0.2 -0.225 Q 0.187 -0.228 0.17400000000000002 -0.229 Q 0.124 -0.021 0.11800000000000001 -0.01 Q 0.108 0.009000000000000001 0.084 0.011 Q 0.06 0.011 0.056 -0.01 Q 0.055 -0.014 0.055 -0.017 Q 0.055 -0.025 0.059000000000000004 -0.039 L 0.20400000000000001 -0.615 L 0.20700000000000002 -0.635 Q 0.20700000000000002 -0.646 0.193 -0.649 L 0.193 -0.649 Q 0.181 -0.652 0.157 -0.652 Q 0.135 -0.652 0.133 -0.664 Q 0.133 -0.681 0.152 -0.684 L 0.274 -0.6940000000000001 Q 0.28700000000000003 -0.6940000000000001 0.28700000000000003 -0.683 Z" />
                </g>
            </g>
        </g>
    </g>
</svg>
